<svg height="72" viewBox="0 0 283 72" width="283" xmlns="http://www.w3.org/2000/svg" xmlns:xlink="http://www.w3.org/1999/xlink"><mask id="a" fill="#fff"><path d="m0 72h283v-72h-283z" fill="#fff" fill-rule="evenodd"/></mask><g fill="none" fill-rule="evenodd"><path d="m0 72h283v-72h-283z" fill="#041116"/><path d="m2.604 42.917h233.263v-40.395h-233.263z" fill="#f79e1c"/><path d="m46.4296 22.6662c0 3.964 3.339 7.178 7.458 7.178s7.458-3.214 7.458-7.178-3.339-7.178-7.458-7.178-7.458 3.214-7.458 7.178zm95.109 4.394c-1.324-.9-3.039-.9-4.677-.825v4.201c1.638 0 3.353 0 4.677-.9.546-.675.546-1.801 0-2.476zm22.141-1.725h3.429l-1.714-4.802zm37.375-5.643c-1.032-1.864-1.792-2.455-3.932-3.436-1.923-.881-4.443-.75-6.315.301-2.417 1.275-3.508 3.751-3.585 6.302.233 2.476 1.402 5.176 4.053 6.152 2.261 1.125 6.706.655 9.777-2.697 0 0 .002-4.373.002-6.622zm-61.753-4.249c-.702-.451-1.504-.462-2.44-.537v3.601c.936-.075 2.027-.15 2.729-.9.468-.6.323-1.771-.289-2.164zm-55.098.517c-.935-.9-2.223-.979-3.548-1.054v5.252c1.403-.075 2.884-.225 3.742-1.351.545-.825.525-2.155-.194-2.847zm-14.774-1.729 1.247 2.55-.006-9.673h14.745c3.403 0 6.466 1.721 8.337 4.497 1.793 2.926 1.715 7.653.078 10.579-1.014 1.575-2.729 3.151-4.522 3.751l6.549 7.352-.024-26.184h8.677c4.492 5.431 8.85 10.715 13.137 16.042l-.04-16.041 9.276-.001h.546l13.712-.004c3.44 0 5.631 1.497 7.046 4.113 1.624 3.003 1.615 7.52-.957 9.921 2.805 1.126 4.754 3.901 4.754 6.752l8.187-20.257.219-.529h10.167l6.53 16.896-.078-.686c-.39-6.227 2.884-11.779 8.497-14.93 4.366-2.476 10.954-2.839 15.67-1.28l.701.004 9.355-.004v11.258h9.354l.035-11.258h9.789v31.148h-9.824v-11.937h-9.354l.013 11.929s-9.701.008-10.193.008c-6.923 1.865-14.214 1.015-18.783-3.476l-1.79-1.889c.515 1.346 1.987 5.357 1.987 5.357h-10.437c-.637-1.556-1.3-3.302-2.036-5.026h-9.276l-2.093 5.026h-10.413c.173-.493 1.035-2.684 1.035-2.684-1.15 1.331-2.482 2.688-7.983 2.688-2.401 0-13.541-.004-14.458-.004h-8.653c-4.521-5.177-8.759-10.83-13.124-16.157v16.157h-18.292c-2.339-2.701-4.054-5.777-6.003-8.703l-.156-.296-.01 8.999-9.813.003v-10.056c-1.871 5.776-8.419 10.728-14.889 10.953-6.782.601-12.941-1.575-16.917-7.052-.857-1.201-1.403-2.476-1.949-3.751l-.156-.466-.008 10.369-9.814.003v-11.932h-9.433l.002 11.929s-9.147.001-9.747.001v-31.136l9.752-.001-.007 11.242c3.069 0 6.323-.006 9.43-.006l.014-11.236h9.803l.008 9.529c2.495-5.552 8.731-10.204 15.202-10.504 7.172-.525 13.486 2.326 17.384 8.103z" fill="#041116"/><path d="m238.45 42.917h41.946v-40.387h-41.946z" fill="#c80986" mask="url(#a)"/><path d="m238.4502 42.9172h2.842l39.104-37.634v-2.753h-2.891l-39.055 37.586z" fill="#f89e2d" mask="url(#a)"/><path d="m238.4502 37.3587 36.189-34.829h-5.752l-30.437 29.293z" fill="#f89e2d" mask="url(#a)"/><path d="m238.4502 29.0636 27.57-26.533h-5.751l-21.819 20.998z" fill="#f89e2d" mask="url(#a)"/><path d="m238.4502 20.7694 18.952-18.239h-5.75l-13.202 12.704z" fill="#f89e2d" mask="url(#a)"/><path d="m266.9141 21.0688 13.482 12.962v-5.535l-10.605-10.196z" fill="#f89e2d" mask="url(#a)"/><path d="m262.6039 25.2184 17.792 17.108v-5.536l-14.916-14.341z" fill="#f89e2d" mask="url(#a)"/><path d="m258.2926 29.3676 14.091 13.55h5.757l-16.972-16.319z" fill="#f89e2d" mask="url(#a)"/><path d="m253.9813 33.5172 9.776 9.4h5.756l-12.656-12.169z" fill="#f89e2d" mask="url(#a)"/><path d="m2.604 69.495h277.792v-24.049h-277.792z" fill="#fef9d6" mask="url(#a)"/><path d="m201.0779 8.2355.02 9.378c-2.182-2.776-5.69-3.534-9.198-2.709-2.184.601-4.366 2.401-5.146 4.502-1.169 3.151-.701 7.052 2.028 9.378 2.026 1.65 4.755 2.326 7.561 1.725 1.794-.374 3.431-1.425 4.755-2.775v9.002c-4.989 2.102-11.771 1.576-16.214-1.425-5.457-3.451-7.64-9.303-6.627-15.38.779-5.552 6.003-10.729 11.538-12.079 3.664-1.051 7.931-1.043 11.283.383" fill="#fefefe" mask="url(#a)"/><path d="m16.5753 19.2564c3.757 0 7.72.007 11.54.007 0-3.676-.002-7.438-.002-11.186h7.795v29.186h-7.795v-11.941c-3.75 0-7.48.011-11.46.011l-.001 11.93h-7.873v-29.186h7.796z" fill="#fefefe" mask="url(#a)"/><path d="m210.1412 19.3376c3.754 0 7.643-.006 11.462-.006v-11.254h7.872v29.185h-7.796v-11.854c-3.756 0-7.809.025-11.543.025 0 3.813.005 7.825.005 11.829h-7.795v-29.121h7.795z" fill="#fefefe" mask="url(#a)"/><path d="m85.3447 15.7978c-1.247-1.876-3.514-1.944-5.697-1.869l-.006 7.203c1.845-.042 4.316.016 5.641-1.709.702-.976.726-2.626.062-3.625m5.445-5.77c3.196 2.401 3.742 6.453 2.729 10.054-.702 2.551-3.352 4.801-6.081 5.252l9.433 10.642-.005-27.898h7.177l14.514 17.975c0-5.813-.014-11.974-.014-17.9h8.085v29.11h-8.085l-14.379-17.761-.024 17.761h-17.014c-2.494-3.752-4.911-7.503-7.484-11.254l.002 11.254h-7.875v-29.185c4.516 0 10.21.004 14.004.004 1.821 0 3.539.955 5.017 1.946" fill="#fefefe" mask="url(#a)"/><path d="m168.6449 26.3833-3.251-9.228-3.196 9.228zm12.497 10.88h-8.42l-1.871-5.028h-10.913l-2.105 5.028h-8.264l11.616-29.186h8.496z" fill="#fefefe" mask="url(#a)"/><path d="m142.787 26.9838c-1.404-2.251-4.443-1.575-6.938-1.726v6.152c2.339-.074 4.833.376 6.548-1.275.702-.75.779-2.176.39-3.151m-2.027-11.254c-.57-1.894-3.04-1.801-4.911-1.801v5.553c1.637 0 3.352.149 4.443-1.051.624-.675.777-1.675.468-2.701m5.44-5.559c2.25 2.337 2.434 6.609.953 9.385-.546.901-1.404 1.576-2.34 2.101 2.184.376 4.901 1.763 5.507 3.838.89 3.062 1.028 6.798-1.663 9.387-1.891 1.819-3.364 2.367-7.368 2.367-4.711 0-9.019.014-13.52.014l-.014-29.122h13.926c1.707 0 3.301.765 4.519 2.03" fill="#fefefe" mask="url(#a)"/><path d="m45.364 22.6648c0 4.531 3.816 8.203 8.524 8.203 4.707 0 8.523-3.672 8.523-8.203s-3.816-8.203-8.523-8.203c-4.708 0-8.524 3.672-8.524 8.203m23.364-7.385c3.04 5.177 2.105 12.754-1.793 17.256-4.131 4.651-9.9 6.378-16.215 5.477-4.755-.75-9.588-3.526-11.771-8.028-2.807-4.877-2.573-12.304 1.247-16.656 4.132-4.876 9.9-6.827 16.371-6.002 4.833.751 9.667 3.527 12.161 7.953" fill="#fefefe" mask="url(#a)"/><g fill="#041116"><path d="m53.7881 63.1545c.64-.551-.265-1.083-.42-1.615-1.17-1.232-2.98-.064-4.438-.742-.552-.66.464-.936.376-1.489.287-.36-.089-.679-.133-1.041.111-.595-.376-.977-.331-1.571.221-.064.287-.405.552-.32.684.383 1.369-.234 2.009.212.353-.19.751-.19 1.06-.509.154-.17-.044-.511.11-.723.707-.297-.177-.617-.221-.977-.662-1.275-2.097-.191-3.068-.68-.817-.191-.111-.893-.067-1.317.067-.808-.728-1.849.133-2.507 1.236-.49 2.672.211 3.93-.362l.464-.893-.464-1.21c-.287-.213-.729-.255-1.105-.192-.441-.318-.948.043-1.457-.127-1.39.297-2.781.021-4.194.191-.817.68-.045 1.828-.309 2.741l-.066 2.571c.22.744-.023 1.678.131 2.423l-.088 1.615c.199 1.507-.22 3.144-.087 4.738-.089.51-.067 1.083.044 1.572.176.34.618.426.993.489.552-.149 1.214.234 1.81-.022 1.06.192 2.098.086 3.202.128.508-.106 1.148-.169 1.634-.383" mask="url(#a)"/><path d="m61.798 60.7332c-.022-.787.155-1.68-.376-2.338-.087-.255.089-.51-.154-.701-.839-.085-.949-1.062-1.81-1.19-.354-.658-1.082-.744-1.634-1.084-.376-.467-.817-.892-.641-1.551.199-.212.42-.616.795-.594.619.021.795.658 1.082 1.04.464.659 1.325.107 1.921.128.485-.043.729-.531.751-.893-.199-.318.11-.743-.133-1.04-.795-.192-1.081-1.169-1.964-1.19-.839-.575-1.701-.149-2.738-.297l-.796.637c-.176.169-.463.148-.485.446-.928.404-.64 1.444-1.038 2.145-.044 1.297.817 2.465 1.965 3.166.508.745 1.523.894 2.054 1.636.199.553.773 1.233.286 1.871-.286.467-.883.192-1.28.128-.309-.298-.728-.659-.795-1.127-.243-.934-1.214-.319-1.876-.361-.685.106-.354.85-.53 1.297.574.658.751 1.571 1.634 1.996 1.368.68 3.51.872 4.746-.17.95-.191.905-1.253 1.016-1.954" mask="url(#a)"/><path d="m73.6848 64.749c-.066.298-.066.637-.376.849-.861.214-1.81.128-2.605-.254-.265-.511-.199-1.19.398-1.467.397-.127.905-.106 1.214.022.309-.128.707-.214.993.084.243.192.376.468.376.766m-1.325-7.352c-.044.361-.397.574-.662.743-.177.171-.464.043-.685 0-.287-.148-.331-.51-.42-.785.111-.766.531-1.551.288-2.338-.243-.425-.177-.936-.089-1.423.243-.341.685-.533 1.06-.319 1.082 1.168.111 2.719.508 4.122m4.041-4.548c.087-.382-.265-.573-.332-.913-.132-.362-.529-.467-.839-.574-.662-.319-.772.51-1.368.467-.464-.488-1.126-.637-1.789-.742-.464-.171-.883.169-1.325.02-.684.553-1.678.595-1.921 1.572.133.596-.507 1.02-.308 1.616.308.977-.023 1.912.11 2.847-.199.552.088 1.084.22 1.593.265.489 1.171.723.906 1.361-.685.531-1.214 1.104-1.148 1.997.066.638.795.828.972 1.339-.133.467-.641.658-1.038.87-.708.49-.641 1.424-.442 2.168.508.382 1.015.934 1.7.957.772.658 1.899.233 2.782.573.993-.17 1.855-.701 2.804-.978.331-.468.596-.892.397-1.444.751-.617.309-1.595.331-2.38.023-.467-.595-.511-.772-.956-.773-.022-1.347-.85-2.142-.531-.684-.255-1.435-.044-2.053-.298-.287-.106-.662-.361-.641-.722.949-.893 2.694-.022 3.422-1.212 1.392-.383.265-1.976.839-2.847-.132-.574-.109-1.148-.021-1.742.066-.362-.066-.893.176-1.296.53-.15 1.237-.191 1.48-.745" mask="url(#a)"/><path d="m80.4763 62.1344c-.596-.51-.42-1.316-.309-1.975-.331-.68.022-1.339.198-1.976-.154-1.128-.442-2.168-.088-3.273-.133-.107-.199-.255-.133-.36.663-.83-.066-1.743.133-2.635-.243-.532-.728-.808-1.368-.766-.42.128-.95-.021-1.326.404-.596 1.147.376 2.635-.286 3.846.353 1.636.11 3.506.11 5.184v.681c.154.658-.42 1.678.464 2.018.728-.042 1.633.383 2.251-.128.31-.254.354-.637.354-1.02m-.133-14.449c-.551-.849-1.39-.679-2.296-.657-.794.297-.265 1.273-.662 1.869.088.192.198.511.441.511.751.063 1.568.403 2.23-.064 1.06-.341-.088-1.127.287-1.659" mask="url(#a)"/><path d="m86.2328 55.1229c.111 1.933-.133 3.909-.022 5.843.022.362-.332.468-.618.595-.464.086-.684-.319-.927-.552-.199-.467.154-.935.044-1.402l.155-.403c-.111-.659-.31-1.34-.045-1.934-.199-.745.111-1.551-.287-2.211.332-.509-.265-1.359.596-1.529.265-.064.574-.171.839 0 .309.446.353 1.083.265 1.593m3.068-2.422c-.595-.404-.772-1.211-1.589-1.339-.994-.297-2.141-.021-2.958.531-.221.023-.265-.233-.287-.383.265-.467.662-.934.42-1.487-.354-.849.153-1.679-.177-2.549-.684-.425-1.392-.191-2.209-.276-.198.127-.286.276-.352.488.022 1.445.088 2.699.044 4.186.11.531-.177 1.105.044 1.658l-.132 5.694.088.85c.265 1.211-.729 2.72.507 3.506.64-.212 1.348.044 1.899-.382 1.104.064 2.097.659 3.113.362.619-.511 1.678-.872 1.281-1.913-.044-.276-.177-.425-.022-.658.11-.893-.088-1.893-.044-2.721-.177-.595.463-1.021.11-1.657.044-1.254-.398-2.826.264-3.91" mask="url(#a)"/><path d="m96.6712 62.0077c.111-.213-.132-.361-.331-.447-.397-.87-1.501-.319-2.009-1.061-.11-.362-.331-.765-.044-1.063-.155-1.402.486-2.762.066-4.101.486-.532-.088-1.041-.088-1.615.375-.34.949-.149 1.413-.213.397-.275 1.17-.403.95-1.083-.42-.234.043-.723-.288-1.02-.618-.042-1.104-.276-1.766-.298-.905-.275-.022-1.062-.133-1.657.487-.319.023-.659-.044-1.02-.331-.467-.971-.637-1.589-.51-.309.149-.906.022-1.149.446l.177 2.232-.066.446c-.066.489-.508.34-.927.403-.287.127-.287.425-.442.702-.11.382-.11.956.266 1.254.11-.044.198.02.22-.064.309-.191.684.02.839.255.221 1.593-.11 3.399.154 5.035l-.221.511c.243 1.36-.242 3.059 1.105 3.995.971.127 2.251.425 3.179.084.331-.361.861-.679.728-1.211" mask="url(#a)"/><path d="m106.5707 62.1344c-.596-.51-.42-1.316-.309-1.975-.331-.68.022-1.339.198-1.976-.154-1.128-.442-2.168-.088-3.273-.133-.107-.199-.255-.133-.36.663-.83-.066-1.743.133-2.635-.243-.532-.728-.808-1.368-.766-.42.128-.95-.021-1.326.404-.595 1.147.376 2.635-.286 3.846.353 1.636.109 3.506.109 5.184v.681c.155.658-.418 1.678.465 2.018.728-.042 1.633.383 2.251-.128.31-.254.354-.637.354-1.02m-.133-14.449c-.551-.849-1.39-.679-2.296-.657-.794.297-.265 1.273-.662 1.869.088.192.198.511.441.511.751.063 1.568.403 2.23-.064 1.06-.341-.088-1.127.287-1.659" mask="url(#a)"/><path d="m118.7524 62.1982c-.398-.212-.111-.637-.155-.956-.177-1.465-.199-2.847-.132-4.312.11-.405-.22-.702-.022-1.064-.067-.743-.309-1.699.287-2.316.221-.616-.089-1.21-.376-1.742-.529-.659-1.567-.744-2.406-.68-.707.064-1.127.68-1.811.787-.308-.086-.286-.447-.485-.659-.464-.319-1.215-.213-1.767-.107-.53-.021-.75.639-1.28.553-.464.382-.552-.276-.839-.489-.53-.254-1.038.085-1.634.043-.288.021-.22.318-.331.509.043 1.934.111 3.677.043 5.696-.043 1.72-.043 3.42-.131 5.162.242 1.084 1.435.468 2.163.723.398-.446.575-.957.553-1.53-.487-.552.242-1.36-.155-2.039.221-.468-.066-1.106.022-1.551-.066-1.34.133-2.827-.088-4.293.265-.467.816-.531 1.258-.744.508.277.265 1.042.397 1.573-.132 1.296.067 2.592-.199 3.952.31.956-.242 1.805.067 2.805.044.382-.288.765-.111 1.168.067.936 1.038.277 1.501.595.509-.064 1.038.086 1.171-.488.177-1.381-.309-2.89-.089-4.271-.374-.489.089-.998 0-1.509.045-1.104-.154-2.252.244-3.251.419-.128.927-.914 1.303-.213.308 1.233 0 2.508-.067 3.677.22 1.826.044 3.611-.023 5.504.177.233.288.573.641.615.486-.212 1.038.127 1.524-.064.529-.064.794-.659.927-1.084" mask="url(#a)"/><path d="m130.9572 62.1982c-.398-.212-.111-.637-.155-.956-.176-1.465-.199-2.847-.132-4.312.11-.405-.22-.702-.022-1.064-.067-.743-.309-1.699.287-2.316.221-.616-.089-1.21-.376-1.742-.529-.659-1.567-.744-2.406-.68-.707.064-1.126.68-1.811.787-.308-.086-.286-.447-.485-.659-.464-.319-1.215-.213-1.766-.107-.53-.021-.751.639-1.28.553-.465.382-.553-.276-.839-.489-.531-.254-1.038.085-1.635.043-.287.021-.221.318-.331.509.044 1.934.11 3.677.044 5.696-.044 1.72-.044 3.42-.132 5.162.242 1.084 1.435.468 2.163.723.398-.446.575-.957.553-1.53-.487-.552.242-1.36-.155-2.039.221-.468-.066-1.106.022-1.551-.066-1.34.133-2.827-.088-4.293.265-.467.817-.531 1.258-.744.508.277.265 1.042.397 1.573-.132 1.296.067 2.592-.198 3.952.309.956-.244 1.805.066 2.805.044.382-.287.765-.111 1.168.067.936 1.038.277 1.501.595.509-.064 1.038.086 1.171-.488.177-1.381-.309-2.89-.088-4.271-.375-.489.088-.998 0-1.509.044-1.104-.155-2.252.243-3.251.42-.128.927-.914 1.303-.213.308 1.233 0 2.508-.066 3.677.22 1.826.043 3.611-.023 5.504.176.233.287.573.64.615.486-.212 1.038.127 1.524-.064.529-.064.794-.659.927-1.084" mask="url(#a)"/><path d="m136.7377 55.527c-.309.213-.773.255-1.104.149-.31-.064-.729.02-.883-.319.11-.362-.111-.807.286-1.042-.375-.234.066-.509.089-.785.265-.489.861-.171 1.258-.171.508.553.354 1.467.354 2.168m2.892.277c-.375-.532.088-1.064 0-1.637-.53-.744.088-2.04-1.193-2.252-.419-.382-.948-.469-1.39-.744-1.016-.17-1.944-.148-2.914.17-.729.552-1.524 1.105-1.678 1.998.043.658-.332 1.232-.199 1.806-.177.297-.066.743-.066 1.083-.199.914.11 1.955.022 2.868-.133.447.374.702.022 1.064.242.934.264 1.911 1.06 2.591.596.192 1.169.786 1.832.553.794.297 1.656.148 2.516-.022.332-.318.795-.361 1.215-.551.044-.383.507-.426.618-.83.044-.913.398-2.124-.552-2.761-.684-.086-1.235-.213-1.921-.022-.839.34 0 1.062-.463 1.615-.199.233-.442.616-.883.531-.817-.234-.927-1.02-.95-1.742.111-.574-.243-1.191.133-1.743.618.107 1.192-.19 1.833-.064.861-.254 1.589.192 2.472-.021.862-.361.375-1.189.486-1.89" mask="url(#a)"/><path d="m147.417 53.1048c-.066-.702-.618-1.36-1.125-1.891-.355.042-.795-.149-1.017.212-.64-.021-.861.638-1.413.807-.331-.19.044-.722-.352-.892-.751-.042-1.546-.127-2.143.404-.088 1.636.044 3.209-.133 4.887.398 1.126-.308 2.316.133 3.421-.221.68.044 1.403-.11 2.168.11.275-.088.658.198.85.906.042 1.834.489 2.672-.064-.045-.319.133-.681-.066-.978.331-.553-.022-1.168-.022-1.7-.177-.574-.243-1.444.133-1.955-.31-.318-.199-.913-.133-1.318-.11-.233-.11-.445-.023-.657.089-.532-.021-.978.133-1.551.265-.361.464-.744.861-.978.884.106 1.723-.319 2.407-.765" mask="url(#a)"/><path d="m165.0689 51.9792c0-.298-.199-.638-.508-.744-.618-.043-1.149-.148-1.767 0-.993.616-.463 1.721-.706 2.592-.464.786-.133 1.913-.663 2.698-.088.022-.199-.02-.264-.106-.398-.977-.111-1.976-.375-3.06.043-.298-.332-.552-.045-.829-.353-.339-.067-.934-.596-1.21-.64-.341-1.325-.064-1.921.063-.419.489-.419 1.169-.398 1.806-.53 1.02-.198 2.402-.618 3.443-.11.276-.066.659-.353.722-.177-.043-.286-.255-.352-.404.043-1.168.021-2.252-.222-3.314.42-.787-.133-1.679-.596-2.316l-1.943-.149-.332.275c-.021.469.023 1.042.288 1.467.706 3.061 1.081 6.078 1.788 9.158.331.341-.022 1.297.751 1.063.53.298 1.258.043 1.877-.064.22-.127.485-.339.463-.594-.11-1.701.309-3.295.199-4.974l.199-.233c.176-.042.375.106.441.256-.022 1.38.177 2.507.618 3.696.221.595-.176 1.339.376 1.806.264.064.419.064.662 0 .618.298 1.369.064 1.921-.276.155-.467.332-.977.133-1.445.441-.615.265-1.444.574-2.103.176-.298.64-.574.375-1-.442-.233-.066-.658-.111-.976.066-1.042.487-1.955.551-3.038.31-.362.199-.936.199-1.425.111-.254.355-.488.355-.785" mask="url(#a)"/><path d="m169.6317 58.076c-.265 1.02.64 2.763-.839 3.209-.154.128-.419.064-.618-.021-.376-.446-.088-1.063-.022-1.573.198-.722.64-1.296 1.125-1.891h.133zm3.069 4.591c-.331-.489-.287-1.148-.221-1.701-.442-.765-.11-1.593-.265-2.485.022-.255.31-.425.177-.702.043-1.19.088-2.294-.044-3.527.265-.701 0-1.53-.419-2.146-.906-.765-2.231-1.211-3.512-.786-1.015.34-1.964 1.083-2.383 2.103 0 .383-.288 1.041.154 1.403.485.105 1.082-.022 1.611.042.972-.042.31-1.424 1.303-1.424.685.341.596 1.318.685 1.934-.111.51-.596.637-1.038.765-.928 1.041-2.385 1.296-2.892 2.699-.178.68-.464 1.338-.287 2.124-.243.872.242 1.594.75 2.275.596.467 1.435.509 2.208.36.221-.36.64-.467.949-.68.729.764 1.722.595 2.672.639.464-.108.419-.575.552-.893z" mask="url(#a)"/><path d="m180.9323 60.7332c-.021-.787.156-1.68-.375-2.338-.088-.255.089-.51-.155-.701-.838-.085-.949-1.062-1.81-1.19-.353-.658-1.081-.744-1.634-1.084-.376-.467-.816-.892-.64-1.551.199-.212.42-.616.795-.594.618.021.795.658 1.082 1.04.463.659 1.324.107 1.921.128.485-.043.729-.531.75-.893-.198-.318.111-.743-.132-1.04-.796-.192-1.082-1.169-1.965-1.19-.839-.575-1.7-.149-2.738-.297l-.795.637c-.177.169-.463.148-.485.446-.928.404-.641 1.444-1.038 2.145-.044 1.297.817 2.465 1.965 3.166.508.745 1.523.894 2.053 1.636.199.553.773 1.233.287 1.871-.287.467-.883.192-1.28.128-.309-.298-.728-.659-.795-1.127-.243-.934-1.215-.319-1.876-.361-.686.106-.354.85-.53 1.297.573.658.751 1.571 1.633 1.996 1.369.68 3.511.872 4.747-.17.949-.191.905-1.253 1.015-1.954" mask="url(#a)"/><path d="m194.8285 61.8162c-.507-.382-1.103-.935-1.833-.828-.75.128-1.7.276-2.45-.127-.464-.405.309-.724.419-1.084-.155-.935 1.017-1.318 1.104-2.168.398-.276.265-.786.663-1.105.309-.425 0-1.062.552-1.381.132-.956.817-1.784 1.479-2.508.11-.68-.707-.977-1.082-1.423-.751.106-1.413-.021-2.054.042-1.148-.147-2.23-.042-3.334-.021-.727.106-.375.935-.551 1.381.331 1.233 1.369.34 2.252.553.397-.022.684-.213 1.103-.106.288.084.199.382.244.594-.641.701-.817 1.573-1.369 2.295-.265 1.169-1.104 2.189-1.414 3.357l-.242.319c-.641.85-1.016 1.977-.795 3.039.441.404 1.126.382 1.678.382 1.611-.021 3.224.15 4.747 0 .442-.296.838-.638.883-1.211" mask="url(#a)"/><path d="m202.6588 61.7746c-.529-.404-.265-1.105-.309-1.637-.419-.807.265-1.593-.088-2.358.177-.469.021-.85-.155-1.255.574-.785-.066-1.805.221-2.761.397-.659-.198-1.339.022-2.04-.353-.872-1.524-.319-2.208-.404-1.037.404-.331 1.636-.574 2.507.332 1.191-.066 2.444.133 3.634-.309.807.154 1.572.066 2.485-.155.469-.486 1.148-1.104 1.233-.309.107-.508-.19-.618-.404.176-1.104-.045-2.316.264-3.441-.595-.681.309-1.382-.132-2.104-.022-1.212.308-2.401.066-3.548-.066-.383-.551-.149-.795-.298-.595.063-1.28-.17-1.7.361-.221.171-.066.468 0 .658-.11 2.126.022 4.23.045 6.418l-.089.276c.022 1.169-.044 2.379.265 3.463.22.766 1.149.617 1.745.745.816.148 1.391-.893 2.074-.278.751-.19 1.259.617 2.032.192.243-.084.287-.425.574-.467.375-.276.242-.595.265-.977" mask="url(#a)"/><path d="m215.4489 62.0077c.111-.213-.133-.361-.331-.447-.397-.87-1.501-.319-2.009-1.061-.111-.362-.332-.765-.044-1.063-.155-1.402.486-2.762.066-4.101.486-.532-.088-1.041-.088-1.615.375-.34.949-.149 1.412-.213.398-.275 1.171-.403.95-1.083-.419-.234.044-.723-.287-1.02-.618-.042-1.104-.276-1.766-.298-.905-.275-.023-1.062-.133-1.657.486-.319.023-.659-.044-1.02-.331-.467-.971-.637-1.589-.51-.309.149-.906.022-1.149.446l.177 2.232-.066.446c-.066.489-.509.34-.927.403-.287.127-.287.425-.443.702-.109.382-.109.956.266 1.254.11-.044.199.02.221-.064.309-.191.685.02.839.255.22 1.593-.111 3.399.154 5.035l-.221.511c.243 1.36-.243 3.059 1.105 3.995.971.127 2.251.425 3.179.084.331-.361.861-.679.728-1.211" mask="url(#a)"/><path d="m223.0371 61.7746c-.53-.404-.265-1.105-.309-1.637-.42-.807.264-1.593-.089-2.358.176-.469.022-.85-.155-1.255.574-.785-.065-1.805.221-2.761.398-.659-.198-1.339.023-2.04-.354-.872-1.525-.319-2.209-.404-1.037.404-.33 1.636-.574 2.507.331 1.191-.066 2.444.132 3.634-.308.807.156 1.572.066 2.485-.153.469-.485 1.148-1.103 1.233-.309.107-.508-.19-.618-.404.176-1.104-.044-2.316.265-3.441-.596-.681.309-1.382-.132-2.104-.023-1.212.308-2.401.066-3.548-.066-.383-.552-.149-.795-.298-.596.063-1.281-.17-1.701.361-.22.171-.066.468 0 .658-.109 2.126.023 4.23.045 6.418l-.088.276c.021 1.169-.045 2.379.265 3.463.22.766 1.148.617 1.744.745.817.148 1.391-.893 2.076-.278.75-.19 1.258.617 2.03.192.243-.084.287-.425.575-.467.375-.276.242-.595.265-.977" mask="url(#a)"/><path d="m231.8159 52.3603c.133-.679-.795-.276-.84-.892-1.081-.595-2.693-.234-3.686.489-.177-.022-.155-.192-.155-.34-.022-.191-.221-.234-.376-.319-.684.234-1.656-.425-2.141.212-.045 1.233 0 2.359.066 3.549.045.595-.154 1.296.045 1.806-.133 1.402-.156 2.869 0 4.292-.31.49-.266 1.169-.156 1.743 0 .362.421.532.75.488.597-.298 1.15.213 1.679-.084.531-.51.288-1.297.176-1.913-.087-.553.199-.913.133-1.423-.353-.468-.021-1.126-.043-1.701-.288-.531.109-1.253-.221-1.72.353-.999-.354-2.274.617-2.975.376.022.817-.34 1.127.022.11.849.065 1.784.155 2.655-.09.234-.177.511-.09.744-.242 1.912.178 3.909-.22 5.801.066.212.265.468.508.531.838-.298 1.655.51 2.429-.191.066-.574.198-1.169.087-1.806-.153-.829-.132-1.701-.153-2.529.352-.85-.067-1.743.198-2.571-.442-.637.198-1.233 0-1.933.31-.617-.022-1.298.111-1.935" mask="url(#a)"/><path d="m236.9324 62.0077c.111-.424-.332-.659-.574-.914-.619-.914-1.656 0-2.406-.319-.839.214-.53 1.403-.486 2.04.154.32.508.467.839.49.663-.128 1.325.191 1.965-.023.463-.275.33-.912.662-1.274" mask="url(#a)"/></g></g></svg>